<?xml version="1.0" encoding="UTF-8"?>
<svg id="Layer_1" xmlns="http://www.w3.org/2000/svg" version="1.1" viewBox="0 0 720 216">
  <!-- Generator: Adobe Illustrator 29.8.1, SVG Export Plug-In . SVG Version: 2.1.1 Build 2)  -->
  <defs>
    <style>
      .st0 {
        fill: #00274d;
      }

      .st1 {
        fill: #fff;
      }

      .st2 {
        fill: #231f20;
      }

      .st3 {
        isolation: isolate;
      }

      .st4 {
        fill: #1c75bc;
      }
    </style>
  </defs>
  <rect class="st0" width="720" height="216"/>
  <rect class="st0" y="252" width="720" height="216"/>
  <g>
    <path class="st0" d="M-680.06,118.07V29.17h31.17c9.35,20.02,22.89,47.07,26.63,58.02h.44c-.99-9.23-1.21-24.93-1.21-39.11v-18.91h23.74v88.89h-29.7c-7.54-16.09-23.62-49.45-27.8-61.18h-.35c.83,8.36.9,25.57.9,41.22v19.96h-23.82Z"/>
    <path class="st0" d="M-522.51,98c0,7.63.38,17.8.81,20.07h-23.22c-.52-1.38-.95-4.59-1.04-6.25-3.22,4.2-8.2,7.89-19.09,7.89-15.18,0-23.38-9.53-23.38-21.58,0-15.9,12.75-22.78,33.42-22.78h8.3v-3.74c0-4.34-1.54-7.51-7.61-7.51-5.69,0-7.19,2.61-7.78,6.98h-23.23c.9-11.3,7.6-22.4,31.65-22.31,22.18.08,31.17,8.63,31.17,24.95v24.28ZM-546.71,88.04h-5.57c-8.67,0-11.52,3.04-11.52,8.03,0,3.98,2.35,7.17,7.36,7.17,8.53,0,9.73-5.85,9.73-13.12v-2.09h0Z"/>
    <path class="st0" d="M-489.46,50.41c4.09,16.47,8.3,36.36,9.56,46.58h.54c1.8-12.74,6.53-30.83,10.21-46.58h24.95l-22.31,67.66h-28.16l-21.82-67.66s27.03,0,27.03,0Z"/>
    <path class="st0" d="M-436.49,24.56h25.17v17.54h-25.17s0-17.54,0-17.54ZM-436.49,50.41h25.17v67.66h-25.17V50.41Z"/>
    <path class="st0" d="M-312.84,118.07h-17.5c-.68-2.42-1.38-6.04-1.64-8.09-5.03,6.62-13.66,9.92-26.01,9.92-27.22,0-40.94-20.58-40.94-45.24,0-27.26,15.88-47.13,45.51-47.13,26.85,0,39.18,15.33,40.79,28.99h-25.81c-1.28-4.72-4.59-10.64-15.11-10.64-14.87,0-18.53,13.66-18.53,27.87s4.24,27.63,18.61,27.63c13.12,0,15.43-9.61,15.43-15.48v-.59h-16.3v-18.22h41.49v50.99h0Z"/>
    <path class="st0" d="M-235.71,98c0,7.63.38,17.8.81,20.07h-23.22c-.52-1.38-.95-4.59-1.04-6.25-3.22,4.2-8.2,7.89-19.09,7.89-15.18,0-23.38-9.53-23.38-21.58,0-15.9,12.75-22.78,33.42-22.78h8.3v-3.74c0-4.34-1.54-7.51-7.61-7.51-5.69,0-7.19,2.61-7.78,6.98h-23.23c.9-11.3,7.6-22.4,31.65-22.31,22.18.08,31.17,8.63,31.17,24.95v24.28h0ZM-259.9,88.04h-5.57c-8.67,0-11.52,3.04-11.52,8.03,0,3.98,2.35,7.17,7.36,7.17,8.53,0,9.73-5.85,9.73-13.12v-2.09h0Z"/>
    <path class="st0" d="M-227.83,50.41h9.75v-17.54h24.9v17.54h11.87v16.97h-11.87v29.03c0,4.19,1.32,5.77,6.61,5.77.95,0,2.17,0,3.51-.13v15.54c-3.92,1.29-10.48,1.56-14.67,1.56-15.99,0-20.48-7.81-20.48-20.59v-31.19h-9.61v-16.97h0Z"/>
    <path class="st0" d="M-150.12,89.21c0,6.82,2.62,13.65,10.03,13.65,5.97,0,7.68-2.54,8.95-6.09h24.71c-2.46,8.99-10.13,22.93-34.08,22.93-25.55,0-34.95-17.21-34.95-34.89,0-20.39,10.79-36.05,35.41-36.05,26.22,0,34.22,17.75,34.22,34.63,0,2.28-.05,3.97-.26,5.82h-44.04.01ZM-131.04,76.08c-.08-6.33-1.89-11.67-9.1-11.67-6.72,0-9.31,4.95-9.73,11.67h18.83Z"/>
  </g>
  <g class="st3">
    <g class="st3">
      <path class="st0" d="M-294.9,170.27v-27.36h8.01l7.2,19.73h.38l7.24-19.73h7.97v27.36h-5.29v-19.12h-.38l-7.05,19.12h-5.36l-7.01-19.12h-.38v19.12h-5.33Z"/>
      <path class="st0" d="M-253.79,170.27l10.34-27.36h7.01l10.35,27.36h-6.36l-2.03-5.86h-11.19l-2.03,5.86h-6.09ZM-244.02,159.35h7.85l-3.72-10.5h-.38l-3.75,10.5Z"/>
      <path class="st0" d="M-215.77,170.27v-27.36h11.69c7.93,0,10.23,3.75,10.23,7.85,0,3.72-1.42,6.02-4.67,7.17v.38c2.8.96,4.06,2.87,4.87,6.71l1.07,5.25h-5.71l-1-5.13c-.57-2.99-1.84-4.45-5.29-4.45h-5.59v9.58h-5.59ZM-210.18,155.63h5.44c3.41,0,5.02-1.38,5.02-3.91s-1.61-3.76-5.02-3.76h-5.44v7.66Z"/>
      <path class="st0" d="M-180.37,170.27v-27.36h5.59v27.36h-5.59Z"/>
      <path class="st0" d="M-161.78,170.27v-27.36h5.98l12.3,17.82h.38v-17.82h5.59v27.36h-5.98l-12.3-17.82h-.38v17.82h-5.59Z"/>
      <path class="st0" d="M-124.54,170.27v-27.36h20.23v5.06h-14.64v6.09h12.91v5.06h-12.91v6.09h14.83v5.06h-20.42Z"/>
    </g>
  </g>
  <g>
    <path class="st1" d="M75.94,118.07V29.17h31.17c9.35,20.02,22.89,47.07,26.63,58.02h.44c-.99-9.23-1.21-24.93-1.21-39.11v-18.91h23.74v88.89h-29.7c-7.54-16.09-23.62-49.45-27.8-61.18h-.35c.83,8.36.9,25.57.9,41.22v19.96h-23.82Z"/>
    <path class="st1" d="M233.49,98c0,7.63.38,17.8.81,20.07h-23.22c-.52-1.38-.95-4.59-1.04-6.25-3.22,4.2-8.2,7.89-19.09,7.89-15.18,0-23.38-9.53-23.38-21.58,0-15.9,12.75-22.78,33.42-22.78h8.3v-3.74c0-4.34-1.54-7.51-7.61-7.51-5.69,0-7.19,2.61-7.78,6.98h-23.23c.9-11.3,7.6-22.4,31.65-22.31,22.18.08,31.17,8.63,31.17,24.95v24.28ZM209.29,88.04h-5.57c-8.67,0-11.52,3.04-11.52,8.03,0,3.98,2.35,7.17,7.36,7.17,8.53,0,9.73-5.85,9.73-13.12v-2.09h0Z"/>
    <path class="st1" d="M266.54,50.41c4.08,16.47,8.3,36.36,9.56,46.58h.54c1.8-12.74,6.53-30.83,10.21-46.58h24.95l-22.31,67.66h-28.16l-21.82-67.66s27.03,0,27.03,0Z"/>
    <path class="st1" d="M319.51,24.56h25.17v17.54h-25.17s0-17.54,0-17.54ZM319.51,50.41h25.17v67.66h-25.17V50.41Z"/>
    <path class="st1" d="M443.16,118.07h-17.5c-.68-2.42-1.38-6.04-1.64-8.09-5.03,6.62-13.66,9.92-26.01,9.92-27.22,0-40.94-20.58-40.94-45.24,0-27.26,15.88-47.13,45.51-47.13,26.85,0,39.18,15.33,40.79,28.99h-25.81c-1.28-4.72-4.59-10.64-15.11-10.64-14.87,0-18.53,13.66-18.53,27.87s4.24,27.63,18.61,27.63c13.12,0,15.43-9.61,15.43-15.48v-.59h-16.3v-18.22h41.49v50.99h0Z"/>
    <path class="st1" d="M520.29,98c0,7.63.38,17.8.81,20.07h-23.22c-.52-1.38-.95-4.59-1.04-6.25-3.22,4.2-8.2,7.89-19.09,7.89-15.17,0-23.38-9.53-23.38-21.58,0-15.9,12.75-22.78,33.42-22.78h8.3v-3.74c0-4.34-1.54-7.51-7.61-7.51-5.69,0-7.19,2.61-7.78,6.98h-23.23c.9-11.3,7.6-22.4,31.65-22.31,22.18.08,31.17,8.63,31.17,24.95v24.28ZM496.1,88.04h-5.57c-8.67,0-11.52,3.04-11.52,8.03,0,3.98,2.35,7.17,7.36,7.17,8.53,0,9.73-5.85,9.73-13.12v-2.09h0Z"/>
    <path class="st1" d="M528.17,50.41h9.75v-17.54h24.9v17.54h11.87v16.97h-11.87v29.03c0,4.19,1.32,5.77,6.61,5.77.95,0,2.17,0,3.51-.13v15.54c-3.92,1.29-10.48,1.56-14.67,1.56-15.99,0-20.48-7.81-20.48-20.59v-31.19h-9.61v-16.97h-.01Z"/>
    <path class="st1" d="M605.88,89.21c0,6.82,2.62,13.65,10.03,13.65,5.97,0,7.68-2.54,8.95-6.09h24.71c-2.46,8.99-10.13,22.93-34.09,22.93-25.55,0-34.95-17.21-34.95-34.89,0-20.39,10.79-36.05,35.41-36.05,26.22,0,34.22,17.75,34.22,34.63,0,2.28-.04,3.97-.26,5.82h-44.04.02ZM624.96,76.08c-.08-6.33-1.89-11.67-9.1-11.67-6.72,0-9.31,4.95-9.73,11.67h18.83,0Z"/>
  </g>
  <path class="st4" d="M456.08,182.78c-30.43-17.46-65.85-23.1-100.41-25.25-34.83-2.12-69.72-.79-104.61.03-52.54,1.45-107.12,3.92-157.07-15.65-16.45-6.53-32.16-15.81-44.56-28.45,14.46,9.75,30.39,17,46.86,21.77,33.24,9.57,67.95,11.21,102.41,12.99,17.36.82,34.81,1.19,52.28,1.28,65.89,1.01,147.66-2.93,205.1,33.3h0v-.02Z"/>
  <g class="st3">
    <g class="st3">
      <path class="st1" d="M461.1,170.27v-27.36h8.01l7.2,19.73h.38l7.24-19.73h7.97v27.36h-5.29v-19.12h-.38l-7.05,19.12h-5.36l-7.01-19.12h-.38v19.12h-5.33Z"/>
      <path class="st1" d="M502.21,170.27l10.34-27.36h7.01l10.35,27.36h-6.36l-2.03-5.86h-11.19l-2.03,5.86h-6.09ZM511.98,159.35h7.85l-3.72-10.5h-.38l-3.75,10.5Z"/>
      <path class="st1" d="M540.23,170.27v-27.36h11.69c7.93,0,10.23,3.75,10.23,7.85,0,3.72-1.42,6.02-4.67,7.17v.38c2.8.96,4.06,2.87,4.87,6.71l1.07,5.25h-5.71l-1-5.13c-.57-2.99-1.84-4.45-5.29-4.45h-5.59v9.58h-5.59ZM545.82,155.63h5.44c3.41,0,5.02-1.38,5.02-3.91s-1.61-3.76-5.02-3.76h-5.44v7.66Z"/>
      <path class="st1" d="M575.63,170.27v-27.36h5.59v27.36h-5.59Z"/>
      <path class="st1" d="M594.22,170.27v-27.36h5.98l12.3,17.82h.38v-17.82h5.59v27.36h-5.98l-12.3-17.82h-.38v17.82h-5.59Z"/>
      <path class="st1" d="M631.46,170.27v-27.36h20.23v5.06h-14.64v6.09h12.91v5.06h-12.91v6.09h14.83v5.06h-20.42Z"/>
    </g>
  </g>
  <g>
    <path class="st2" d="M-680.06,370.07v-88.89h31.17c9.35,20.02,22.89,47.07,26.63,58.02h.44c-.99-9.23-1.21-24.93-1.21-39.11v-18.91h23.74v88.89h-29.7c-7.54-16.09-23.62-49.45-27.8-61.18h-.35c.83,8.36.9,25.57.9,41.22v19.96h-23.82Z"/>
    <path class="st2" d="M-522.51,350c0,7.63.38,17.8.81,20.07h-23.22c-.52-1.38-.95-4.59-1.04-6.25-3.22,4.2-8.2,7.89-19.09,7.89-15.18,0-23.38-9.53-23.38-21.58,0-15.9,12.75-22.78,33.42-22.78h8.3v-3.74c0-4.34-1.54-7.51-7.61-7.51-5.69,0-7.19,2.61-7.78,6.98h-23.23c.9-11.3,7.6-22.4,31.65-22.31,22.18.08,31.17,8.63,31.17,24.95v24.28h0ZM-546.71,340.04h-5.57c-8.67,0-11.52,3.04-11.52,8.03,0,3.98,2.35,7.17,7.36,7.17,8.53,0,9.73-5.85,9.73-13.12v-2.09h0Z"/>
    <path class="st2" d="M-489.46,302.41c4.09,16.47,8.3,36.36,9.56,46.58h.54c1.8-12.74,6.53-30.83,10.21-46.58h24.95l-22.31,67.66h-28.16l-21.82-67.66h27.03Z"/>
    <path class="st2" d="M-436.49,276.56h25.17v17.54h-25.17v-17.54ZM-436.49,302.41h25.17v67.66h-25.17v-67.66Z"/>
    <path class="st2" d="M-312.84,370.07h-17.5c-.68-2.42-1.38-6.04-1.64-8.09-5.03,6.62-13.66,9.92-26.01,9.92-27.22,0-40.94-20.58-40.94-45.24,0-27.26,15.88-47.13,45.51-47.13,26.85,0,39.18,15.33,40.79,28.99h-25.81c-1.28-4.72-4.59-10.64-15.11-10.64-14.87,0-18.53,13.66-18.53,27.87s4.24,27.63,18.61,27.63c13.12,0,15.43-9.61,15.43-15.48v-.59h-16.3v-18.22h41.49v50.99h0Z"/>
    <path class="st2" d="M-235.71,350c0,7.63.38,17.8.81,20.07h-23.22c-.52-1.38-.95-4.59-1.04-6.25-3.22,4.2-8.2,7.89-19.09,7.89-15.18,0-23.38-9.53-23.38-21.58,0-15.9,12.75-22.78,33.42-22.78h8.3v-3.74c0-4.34-1.54-7.51-7.61-7.51-5.69,0-7.19,2.61-7.78,6.98h-23.23c.9-11.3,7.6-22.4,31.65-22.31,22.18.08,31.17,8.63,31.17,24.95v24.28h0ZM-259.9,340.04h-5.57c-8.67,0-11.52,3.04-11.52,8.03,0,3.98,2.35,7.17,7.36,7.17,8.53,0,9.73-5.85,9.73-13.12v-2.09h0Z"/>
    <path class="st2" d="M-227.83,302.41h9.75v-17.54h24.9v17.54h11.87v16.97h-11.87v29.03c0,4.19,1.32,5.77,6.61,5.77.95,0,2.17,0,3.51-.13v15.54c-3.92,1.29-10.48,1.56-14.67,1.56-15.99,0-20.48-7.81-20.48-20.59v-31.19h-9.61v-16.97h0Z"/>
    <path class="st2" d="M-150.12,341.21c0,6.82,2.62,13.65,10.03,13.65,5.97,0,7.68-2.54,8.95-6.09h24.71c-2.46,8.99-10.13,22.93-34.08,22.93-25.55,0-34.95-17.21-34.95-34.89,0-20.39,10.79-36.05,35.41-36.05,26.22,0,34.22,17.75,34.22,34.63,0,2.28-.05,3.97-.26,5.82h-44.04.01ZM-131.04,328.08c-.08-6.33-1.89-11.67-9.1-11.67-6.72,0-9.31,4.95-9.73,11.67h18.83Z"/>
  </g>
  <g class="st3">
    <g class="st3">
      <path class="st2" d="M-294.9,422.27v-27.36h8.01l7.2,19.73h.38l7.24-19.73h7.97v27.36h-5.29v-19.12h-.38l-7.05,19.12h-5.36l-7.01-19.12h-.38v19.12h-5.33Z"/>
      <path class="st2" d="M-253.79,422.27l10.34-27.36h7.01l10.35,27.36h-6.36l-2.03-5.86h-11.19l-2.03,5.86h-6.09ZM-244.02,411.35h7.85l-3.72-10.5h-.38l-3.75,10.5Z"/>
      <path class="st2" d="M-215.77,422.27v-27.36h11.69c7.93,0,10.23,3.75,10.23,7.85,0,3.72-1.42,6.02-4.67,7.17v.38c2.8.96,4.06,2.87,4.87,6.71l1.07,5.25h-5.71l-1-5.13c-.57-2.99-1.84-4.45-5.29-4.45h-5.59v9.58h-5.59ZM-210.18,407.63h5.44c3.41,0,5.02-1.38,5.02-3.91s-1.61-3.75-5.02-3.75h-5.44v7.66Z"/>
      <path class="st2" d="M-180.37,422.27v-27.36h5.59v27.36h-5.59Z"/>
      <path class="st2" d="M-161.78,422.27v-27.36h5.98l12.3,17.82h.38v-17.82h5.59v27.36h-5.98l-12.3-17.82h-.38v17.82h-5.59Z"/>
      <path class="st2" d="M-124.54,422.27v-27.36h20.23v5.06h-14.64v6.09h12.91v5.06h-12.91v6.09h14.83v5.06h-20.42Z"/>
    </g>
  </g>
  <path class="st4" d="M-299.92,182.78c-30.43-17.46-65.85-23.1-100.41-25.25-34.83-2.12-69.72-.79-104.61.03-52.54,1.45-107.12,3.92-157.07-15.65-16.45-6.53-32.16-15.81-44.56-28.45,14.46,9.75,30.39,17,46.86,21.77,33.24,9.57,67.95,11.21,102.41,12.99,17.36.82,34.81,1.19,52.28,1.28,65.89,1.01,147.66-2.93,205.1,33.3h0v-.02Z"/>
  <g>
    <g>
      <path class="st1" d="M75.94,370.07v-88.89h31.17c9.35,20.02,22.89,47.07,26.63,58.02h.44c-.99-9.23-1.21-24.93-1.21-39.11v-18.91h23.74v88.89h-29.7c-7.54-16.09-23.62-49.45-27.8-61.18h-.35c.83,8.36.9,25.57.9,41.22v19.96h-23.82Z"/>
      <path class="st1" d="M233.49,350c0,7.63.38,17.8.81,20.07h-23.22c-.52-1.38-.95-4.59-1.04-6.25-3.22,4.2-8.2,7.89-19.09,7.89-15.18,0-23.38-9.53-23.38-21.58,0-15.9,12.75-22.78,33.42-22.78h8.3v-3.74c0-4.34-1.54-7.51-7.61-7.51-5.69,0-7.19,2.61-7.78,6.98h-23.23c.9-11.3,7.6-22.4,31.65-22.31,22.18.08,31.17,8.63,31.17,24.95v24.28h0ZM209.29,340.04h-5.57c-8.67,0-11.52,3.04-11.52,8.03,0,3.98,2.35,7.17,7.36,7.17,8.53,0,9.73-5.85,9.73-13.12v-2.09h0Z"/>
      <path class="st1" d="M266.54,302.41c4.08,16.47,8.3,36.36,9.56,46.58h.54c1.8-12.74,6.53-30.83,10.21-46.58h24.95l-22.31,67.66h-28.16l-21.82-67.66h27.03Z"/>
      <path class="st1" d="M319.51,276.56h25.17v17.54h-25.17v-17.54ZM319.51,302.41h25.17v67.66h-25.17v-67.66Z"/>
      <path class="st1" d="M443.16,370.07h-17.5c-.68-2.42-1.38-6.04-1.64-8.09-5.03,6.62-13.66,9.92-26.01,9.92-27.22,0-40.94-20.58-40.94-45.24,0-27.26,15.88-47.13,45.51-47.13,26.85,0,39.18,15.33,40.79,28.99h-25.81c-1.28-4.72-4.59-10.64-15.11-10.64-14.87,0-18.53,13.66-18.53,27.87s4.24,27.63,18.61,27.63c13.12,0,15.43-9.61,15.43-15.48v-.59h-16.3v-18.22h41.49v50.99h0Z"/>
      <path class="st1" d="M520.29,350c0,7.63.38,17.8.81,20.07h-23.22c-.52-1.38-.95-4.59-1.04-6.25-3.22,4.2-8.2,7.89-19.09,7.89-15.17,0-23.38-9.53-23.38-21.58,0-15.9,12.75-22.78,33.42-22.78h8.3v-3.74c0-4.34-1.54-7.51-7.61-7.51-5.69,0-7.19,2.61-7.78,6.98h-23.23c.9-11.3,7.6-22.4,31.65-22.31,22.18.08,31.17,8.63,31.17,24.95v24.28h0ZM496.1,340.04h-5.57c-8.67,0-11.52,3.04-11.52,8.03,0,3.98,2.35,7.17,7.36,7.17,8.53,0,9.73-5.85,9.73-13.12v-2.09h0Z"/>
      <path class="st1" d="M528.17,302.41h9.75v-17.54h24.9v17.54h11.87v16.97h-11.87v29.03c0,4.19,1.32,5.77,6.61,5.77.95,0,2.17,0,3.51-.13v15.54c-3.92,1.29-10.48,1.56-14.67,1.56-15.99,0-20.48-7.81-20.48-20.59v-31.19h-9.61v-16.97h-.01Z"/>
      <path class="st1" d="M605.88,341.21c0,6.82,2.62,13.65,10.03,13.65,5.97,0,7.68-2.54,8.95-6.09h24.71c-2.46,8.99-10.13,22.93-34.09,22.93-25.55,0-34.95-17.21-34.95-34.89,0-20.39,10.79-36.05,35.41-36.05,26.22,0,34.22,17.75,34.22,34.63,0,2.28-.04,3.97-.26,5.82h-44.04.02ZM624.96,328.08c-.08-6.33-1.89-11.67-9.1-11.67-6.72,0-9.31,4.95-9.73,11.67h18.83,0Z"/>
    </g>
    <g class="st3">
      <g class="st3">
        <path class="st1" d="M461.1,422.27v-27.36h8.01l7.2,19.73h.38l7.24-19.73h7.97v27.36h-5.29v-19.12h-.38l-7.05,19.12h-5.36l-7.01-19.12h-.38v19.12h-5.33Z"/>
        <path class="st1" d="M502.21,422.27l10.34-27.36h7.01l10.35,27.36h-6.36l-2.03-5.86h-11.19l-2.03,5.86h-6.09ZM511.98,411.35h7.85l-3.72-10.5h-.38l-3.75,10.5Z"/>
        <path class="st1" d="M540.23,422.27v-27.36h11.69c7.93,0,10.23,3.75,10.23,7.85,0,3.72-1.42,6.02-4.67,7.17v.38c2.8.96,4.06,2.87,4.87,6.71l1.07,5.25h-5.71l-1-5.13c-.57-2.99-1.84-4.45-5.29-4.45h-5.59v9.58h-5.59ZM545.82,407.63h5.44c3.41,0,5.02-1.38,5.02-3.91s-1.61-3.75-5.02-3.75h-5.44v7.66Z"/>
        <path class="st1" d="M575.63,422.27v-27.36h5.59v27.36h-5.59Z"/>
        <path class="st1" d="M594.22,422.27v-27.36h5.98l12.3,17.82h.38v-17.82h5.59v27.36h-5.98l-12.3-17.82h-.38v17.82h-5.59Z"/>
        <path class="st1" d="M631.46,422.27v-27.36h20.23v5.06h-14.64v6.09h12.91v5.06h-12.91v6.09h14.83v5.06h-20.42Z"/>
      </g>
    </g>
    <path class="st1" d="M456.08,434.78c-30.43-17.46-65.85-23.1-100.41-25.25-34.83-2.12-69.72-.79-104.61.03-52.54,1.45-107.12,3.92-157.07-15.65-16.45-6.53-32.16-15.81-44.56-28.45,14.46,9.76,30.39,17,46.86,21.77,33.24,9.57,67.95,11.21,102.41,12.99,17.36.82,34.81,1.19,52.28,1.27,65.89,1.01,147.66-2.93,205.1,33.3h0Z"/>
  </g>
  <path class="st2" d="M-299.92,434.78c-30.43-17.46-65.85-23.1-100.41-25.25-34.83-2.12-69.72-.79-104.61.03-52.54,1.45-107.12,3.92-157.07-15.65-16.45-6.53-32.16-15.81-44.56-28.45,14.46,9.76,30.39,17,46.86,21.77,33.24,9.57,67.95,11.21,102.41,12.99,17.36.82,34.81,1.19,52.28,1.27,65.89,1.01,147.66-2.93,205.1,33.3h0Z"/>
</svg>